<svg width="50" height="48" viewBox="0 0 50 48" fill="none" xmlns="http://www.w3.org/2000/svg">
<mask id="mask0" mask-type="alpha" maskUnits="userSpaceOnUse" x="2" y="6" width="46" height="38">
<path d="M3.28599 35.9046L20.9972 8.23084C22.8362 5.35741 27.034 5.35741 28.873 8.23084L46.5841 35.9046C48.1555 38.3598 46.7438 41.6251 43.8787 42.1623C31.3587 44.5098 18.5114 44.5098 5.99144 42.1623C3.12638 41.6251 1.71466 38.3598 3.28599 35.9046Z" fill="#C4C4C4"/>
</mask>
<g mask="url(#mask0)">
<path d="M3.28599 35.9046L20.9972 8.23084C22.8362 5.35741 27.034 5.35741 28.873 8.23084L46.5841 35.9046C48.1555 38.3598 46.7438 41.6251 43.8787 42.1623C31.3587 44.5098 18.5114 44.5098 5.99144 42.1623C3.12638 41.6251 1.71466 38.3598 3.28599 35.9046Z" fill="#4D7D0F"/>
<path d="M0 41.0389L21.6291 19.4098C23.4549 17.584 26.4152 17.584 28.241 19.4098L49.8701 41.0389L46.4753 41.6755C32.2392 44.3448 17.6309 44.3448 3.39484 41.6755L0 41.0389Z" fill="#64A30C"/>
<path d="M0 41.039L23.0611 30.9497C24.2558 30.4271 25.6144 30.4271 26.809 30.9497L49.8701 41.039C33.4987 45.1318 16.3714 45.1318 0 41.039Z" fill="#85CC16"/>
</g>
</svg>
